<?xml version="1.0" encoding="UTF-8" standalone="no"?>
<!-- Generator: Adobe Illustrator 19.0.0, SVG Export Plug-In . SVG Version: 6.00 Build 0)  -->

<svg
   xmlns:dc="http://purl.org/dc/elements/1.1/"
   xmlns:cc="http://creativecommons.org/ns#"
   xmlns:rdf="http://www.w3.org/1999/02/22-rdf-syntax-ns#"
   xmlns:svg="http://www.w3.org/2000/svg"
   xmlns="http://www.w3.org/2000/svg"
   xmlns:sodipodi="http://sodipodi.sourceforge.net/DTD/sodipodi-0.dtd"
   xmlns:inkscape="http://www.inkscape.org/namespaces/inkscape"
   version="1.1"
   id="Capa_1"
   x="0px"
   y="0px"
   viewBox="0 0 58 58"
   style="enable-background:new 0 0 58 58;"
   xml:space="preserve"
   sodipodi:docname="fullscreen-1.svg"
   inkscape:version="0.92.3 (2405546, 2018-03-11)"
   inkscape:export-filename="C:\cygwin64\home\krzysiek\phobos\src-cpp\Phobos\icons\essential\derived\fullscreen-1.png"
   inkscape:export-xdpi="847.4483"
   inkscape:export-ydpi="847.4483"><metadata
   id="metadata3800"><rdf:RDF><cc:Work
       rdf:about=""><dc:format>image/svg+xml</dc:format><dc:type
         rdf:resource="http://purl.org/dc/dcmitype/StillImage" /><dc:title /></cc:Work></rdf:RDF></metadata><defs
   id="defs3798">
	
	
	
	
	
	
	
	
	
	
	
	
	
	
	
	
	
	
	
	
	
	
</defs><sodipodi:namedview
   pagecolor="#ffffff"
   bordercolor="#666666"
   borderopacity="1"
   objecttolerance="10"
   gridtolerance="10"
   guidetolerance="10"
   inkscape:pageopacity="0"
   inkscape:pageshadow="2"
   inkscape:window-width="1920"
   inkscape:window-height="1057"
   id="namedview3796"
   showgrid="false"
   inkscape:snap-grids="true"
   showguides="true"
   inkscape:guide-bbox="true"
   inkscape:zoom="2.7126079"
   inkscape:cx="-129.63824"
   inkscape:cy="47.631449"
   inkscape:window-x="-32000"
   inkscape:window-y="-32000"
   inkscape:window-maximized="0"
   inkscape:current-layer="Capa_1"><inkscape:grid
     type="xygrid"
     id="grid3823" /></sodipodi:namedview>
<rect
   x="10.25309"
   y="7.9679551"
   style="fill:#ebba16;stroke-width:1.08515704"
   width="47.74691"
   height="34.725025"
   id="rect3713" /><path
   style="fill:#ed8a19;fill-opacity:1;stroke-width:0.05730578"
   d="M 0,39.983975 V 29 L 8.3090546,28.97026 C 12.879035,28.95392 19.179035,28.95389 22.309056,28.970178 L 28,28.999842 V 39.983898 50.967953 H 14.000001 0 Z"
   id="path3821"
   inkscape:connector-curvature="0" />


<circle
   id="circle3719"
   r="1"
   cy="45.967957"
   cx="17"
   style="fill:#efce4a" /><circle
   id="circle3721"
   r="1"
   cy="48.967957"
   cx="20"
   style="fill:#efce4a" /><circle
   id="circle3723"
   r="1"
   cy="42.967957"
   cx="14"
   style="fill:#efce4a" /><circle
   id="circle3727"
   r="1"
   cy="42.967957"
   cx="20"
   style="fill:#efce4a" /><circle
   id="circle3731"
   r="1"
   cy="36.967957"
   cx="20"
   style="fill:#efce4a" /><circle
   id="circle3733"
   r="1"
   cy="48.967957"
   cx="14"
   style="fill:#efce4a" /><circle
   id="circle3735"
   r="1"
   cy="42.967957"
   cx="8"
   style="fill:#efce4a" /><circle
   id="circle3737"
   r="1"
   cy="48.967957"
   cx="8"
   style="fill:#efce4a" /><circle
   id="circle3739"
   r="1"
   cy="45.967957"
   cx="11"
   style="fill:#efce4a" /><circle
   id="circle3743"
   r="1"
   cy="36.967957"
   cx="8"
   style="fill:#efce4a" /><circle
   id="circle3745"
   r="1"
   cy="36.967957"
   cx="14"
   style="fill:#efce4a" /><circle
   id="circle3747"
   r="1"
   cy="39.967957"
   cx="11"
   style="fill:#efce4a" /><circle
   id="circle3749"
   r="1"
   cy="39.967957"
   cx="17"
   style="fill:#efce4a" /><circle
   id="circle3751"
   r="1"
   cy="36.967957"
   cx="2"
   style="fill:#efce4a" /><circle
   id="circle3753"
   r="1"
   cy="42.967957"
   cx="2"
   style="fill:#efce4a" /><circle
   id="circle3755"
   r="1"
   cy="39.967957"
   cx="5"
   style="fill:#efce4a" /><circle
   id="circle3757"
   r="1"
   cy="45.967957"
   cx="5"
   style="fill:#efce4a" /><circle
   id="circle3759"
   r="1"
   cy="48.967957"
   cx="2"
   style="fill:#efce4a" />
<g
   id="g3765">
</g>
<g
   id="g3767">
</g>
<g
   id="g3769">
</g>
<g
   id="g3771">
</g>
<g
   id="g3773">
</g>
<g
   id="g3775">
</g>
<g
   id="g3777">
</g>
<g
   id="g3779">
</g>
<g
   id="g3781">
</g>
<g
   id="g3783">
</g>
<g
   id="g3785">
</g>
<g
   id="g3787">
</g>
<g
   id="g3789">
</g>
<g
   id="g3791">
</g>
<g
   id="g3793">
</g>
<g
   transform="translate(-2.0000003,3.9705628)"
   id="g4004"><g
     transform="rotate(-45,5.1431159,-63.997845)"
     id="g4127"><line
       style="fill:none;stroke:#7383bf;stroke-width:2;stroke-linecap:round;stroke-linejoin:round;stroke-miterlimit:10"
       x1="-23.240829"
       y1="34.894382"
       x2="-11.240829"
       y2="22.894382"
       id="line4041" /><line
       style="fill:none;stroke:#7383bf;stroke-width:2;stroke-linecap:round;stroke-linejoin:round;stroke-miterlimit:10"
       x1="-23.240829"
       y1="10.894382"
       x2="-11.240829"
       y2="22.894382"
       id="line4043" /><line
       style="fill:none;stroke:#7383bf;stroke-width:2;stroke-linecap:round;stroke-linejoin:round;stroke-miterlimit:10"
       x1="-11.240829"
       y1="22.894382"
       x2="-44.240829"
       y2="22.894382"
       id="line4045" /></g><g
     transform="translate(-63.240829,-4.105618)"
     id="g4047">
</g><g
     transform="translate(-63.240829,-4.105618)"
     id="g4049">
</g><g
     transform="translate(-63.240829,-4.105618)"
     id="g4051">
</g><g
     transform="translate(-63.240829,-4.105618)"
     id="g4053">
</g><g
     transform="translate(-63.240829,-4.105618)"
     id="g4055">
</g><g
     transform="translate(-63.240829,-4.105618)"
     id="g4057">
</g><g
     transform="translate(-63.240829,-4.105618)"
     id="g4059">
</g><g
     transform="translate(-63.240829,-4.105618)"
     id="g4061">
</g><g
     transform="translate(-63.240829,-4.105618)"
     id="g4063">
</g><g
     transform="translate(-63.240829,-4.105618)"
     id="g4065">
</g><g
     transform="translate(-63.240829,-4.105618)"
     id="g4067">
</g><g
     transform="translate(-63.240829,-4.105618)"
     id="g4069">
</g><g
     transform="translate(-63.240829,-4.105618)"
     id="g4071">
</g><g
     transform="translate(-63.240829,-4.105618)"
     id="g4073">
</g><g
     transform="translate(-63.240829,-4.105618)"
     id="g4075">
</g><path
     transform="translate(0,-2)"
     inkscape:connector-curvature="0"
     id="path4140"
     d="M 31.372169,35.270968 C 31.028731,35.146312 30.819858,34.933164 30.736016,34.621799 30.576139,34.02806 29.845801,34.80578 41.710696,22.935132 L 52.60324,12.037307 45.164369,12.019402 c -7.432003,-0.01789 -7.439041,-0.01803 -7.62284,-0.154235 -0.635753,-0.471122 -0.628304,-1.291241 0.01514,-1.667033 0.187719,-0.109634 0.682169,-0.116287 8.973838,-0.120745 9.706372,-0.0052 9.017287,-0.03599 9.296043,0.415051 l 0.136629,0.22107 v 8.747627 c 0,7.935945 -0.0098,8.768313 -0.105788,8.970558 -0.161023,0.339332 -0.449684,0.513621 -0.850669,0.513621 -0.364506,0 -0.585765,-0.119369 -0.831651,-0.448675 C 54.041435,28.317667 54.040612,28.2762 54.023329,20.844714 L 54.005949,13.372735 43.04197,24.335992 c -6.030188,6.029791 -11.007761,10.963657 -11.061274,10.964147 -0.05351,4.89e-4 -0.155947,0.01459 -0.227633,0.03133 -0.07169,0.01674 -0.243089,-0.01048 -0.380897,-0.0605 z"
     style="fill:#424a60;fill-opacity:1;stroke-width:0.06516854" /></g><g
   transform="translate(-53,-3)"
   id="g3906">
</g><g
   transform="translate(-53,-3)"
   id="g3908">
</g><g
   transform="translate(-53,-3)"
   id="g3910">
</g><g
   transform="translate(-53,-3)"
   id="g3912">
</g><g
   transform="translate(-53,-3)"
   id="g3914">
</g><g
   transform="translate(-53,-3)"
   id="g3916">
</g><g
   transform="translate(-53,-3)"
   id="g3918">
</g><g
   transform="translate(-53,-3)"
   id="g3920">
</g><g
   transform="translate(-53,-3)"
   id="g3922">
</g><g
   transform="translate(-53,-3)"
   id="g3924">
</g><g
   transform="translate(-53,-3)"
   id="g3926">
</g><g
   transform="translate(-53,-3)"
   id="g3928">
</g><g
   transform="translate(-53,-3)"
   id="g3930">
</g><g
   transform="translate(-53,-3)"
   id="g3932">
</g><g
   transform="translate(-53,-3)"
   id="g3934">
</g><circle
   id="circle3731-9"
   r="1"
   cy="34"
   cx="23"
   style="fill:#efce4a" /><circle
   id="circle3743-9"
   r="1"
   cy="34"
   cx="11"
   style="fill:#efce4a" /><circle
   id="circle3745-2"
   r="1"
   cy="34"
   cx="17"
   style="fill:#efce4a" /><circle
   id="circle3751-3"
   r="1"
   cy="34"
   cx="5"
   style="fill:#efce4a" /><circle
   id="circle3731-91"
   r="1"
   cy="40"
   cx="23"
   style="fill:#efce4a" /><circle
   id="circle3731-97"
   r="1"
   cy="46"
   cx="23"
   style="fill:#efce4a" /><circle
   id="circle3731-9-4"
   r="1"
   cy="37"
   cx="26"
   style="fill:#efce4a" /><circle
   id="circle3731-9-4-0"
   r="1"
   cy="43"
   cx="26"
   style="fill:#efce4a" /><circle
   id="circle3731-9-4-7"
   r="1"
   cy="49"
   cx="26"
   style="fill:#efce4a" /><circle
   id="circle3731-9-47"
   r="1"
   cy="31"
   cx="20"
   style="fill:#efce4a" /><circle
   id="circle3743-9-4"
   r="1"
   cy="31"
   cx="8"
   style="fill:#efce4a" /><circle
   id="circle3745-2-7"
   r="1"
   cy="31"
   cx="14"
   style="fill:#efce4a" /><circle
   id="circle3751-3-2"
   r="1"
   cy="31"
   cx="2"
   style="fill:#efce4a" /><circle
   id="circle3731-9-47-0"
   r="1"
   cy="31"
   cx="26"
   style="fill:#efce4a" /></svg>