<?xml version="1.0" encoding="UTF-8" standalone="no"?>
<!-- Generator: Adobe Illustrator 19.0.0, SVG Export Plug-In . SVG Version: 6.00 Build 0)  -->

<svg
   xmlns:dc="http://purl.org/dc/elements/1.1/"
   xmlns:cc="http://creativecommons.org/ns#"
   xmlns:rdf="http://www.w3.org/1999/02/22-rdf-syntax-ns#"
   xmlns:svg="http://www.w3.org/2000/svg"
   xmlns="http://www.w3.org/2000/svg"
   xmlns:sodipodi="http://sodipodi.sourceforge.net/DTD/sodipodi-0.dtd"
   xmlns:inkscape="http://www.inkscape.org/namespaces/inkscape"
   version="1.1"
   id="Capa_1"
   x="0px"
   y="0px"
   viewBox="0 0 47 47"
   style="enable-background:new 0 0 47 47;"
   xml:space="preserve"
   sodipodi:docname="save-as.svg"
   inkscape:version="0.92.3 (2405546, 2018-03-11)"><metadata
   id="metadata870"><rdf:RDF><cc:Work
       rdf:about=""><dc:format>image/svg+xml</dc:format><dc:type
         rdf:resource="http://purl.org/dc/dcmitype/StillImage" /><dc:title></dc:title></cc:Work></rdf:RDF></metadata><defs
   id="defs868" /><sodipodi:namedview
   pagecolor="#ffffff"
   bordercolor="#666666"
   borderopacity="1"
   objecttolerance="10"
   gridtolerance="10"
   guidetolerance="10"
   inkscape:pageopacity="0"
   inkscape:pageshadow="2"
   inkscape:window-width="1920"
   inkscape:window-height="1057"
   id="namedview866"
   showgrid="false"
   inkscape:zoom="4.7340426"
   inkscape:cx="4.1210584"
   inkscape:cy="9.6683805"
   inkscape:window-x="-8"
   inkscape:window-y="-8"
   inkscape:window-maximized="1"
   inkscape:current-layer="Capa_1" />
<polygon
   style="fill:#424a60"
   points="46.5,47 0.5,47 0.5,0 38.5,0 46.5,8 "
   id="polygon815"
   transform="matrix(0.85063362,0,0,0.85063362,0.07468319,0)" />
<rect
   x="6.4544353"
   y="22.116474"
   style="fill:#e7eced;stroke-width:0.85063362"
   width="26.369642"
   height="17.863306"
   id="rect817" />
<rect
   x="6.4544353"
   y="22.116474"
   style="fill:#ebba16;stroke-width:0.85063362"
   width="26.369642"
   height="10.239077"
   id="rect819" />
<rect
   x="8.1557026"
   style="fill:#c7cac7;stroke-width:0.85063362"
   width="22.116474"
   height="13.610138"
   id="rect821"
   y="0" />
<g
   id="g829"
   transform="matrix(0.85063362,0,0,0.85063362,0.07468319,0)">
	<path
   style="fill:#ffffff"
   d="m 12.5,31 h 7 c 0.553,0 1,-0.447 1,-1 0,-0.553 -0.447,-1 -1,-1 h -7 c -0.553,0 -1,0.447 -1,1 0,0.553 0.447,1 1,1 z"
   id="path823"
   inkscape:connector-curvature="0" />
	<path
   style="fill:#ffffff"
   d="m 22.5,33 h -10 c -0.553,0 -1,0.447 -1,1 0,0.553 0.447,1 1,1 h 10 c 0.553,0 1,-0.447 1,-1 0,-0.553 -0.447,-1 -1,-1 z"
   id="path825"
   inkscape:connector-curvature="0" />
	<path
   style="fill:#ffffff"
   d="m 26.21,33.29 c -0.37,-0.37 -1.04,-0.37 -1.41,0 -0.19,0.189 -0.3,0.439 -0.3,0.71 0,0.27 0.109,0.52 0.29,0.71 0.189,0.18 0.439,0.29 0.71,0.29 0.27,0 0.52,-0.11 0.71,-0.29 0.18,-0.19 0.29,-0.45 0.29,-0.71 0,-0.26 -0.11,-0.521 -0.29,-0.71 z"
   id="path827"
   inkscape:connector-curvature="0" />
</g>
<rect
   x="23.467108"
   y="3.4025345"
   style="fill:none;stroke:#424a60;stroke-width:1.70126724;stroke-linecap:round;stroke-miterlimit:10"
   width="3.4025345"
   height="6.805069"
   id="rect831" />
<polygon
   style="fill:#e7eced"
   points="9.5,16 9.5,0 16.5,0 24.5,16 "
   id="polygon833"
   transform="matrix(0.85063362,0,0,0.85063362,0.07468319,0)" />
<g
   id="g835">
</g>
<g
   id="g837">
</g>
<g
   id="g839">
</g>
<g
   id="g841">
</g>
<g
   id="g843">
</g>
<g
   id="g845">
</g>
<g
   id="g847">
</g>
<g
   id="g849">
</g>
<g
   id="g851">
</g>
<g
   id="g853">
</g>
<g
   id="g855">
</g>
<g
   id="g857">
</g>
<g
   id="g859">
</g>
<g
   id="g861">
</g>
<g
   id="g863">
</g>
<g
   id="g1002"
   transform="matrix(0.34445971,0,0,0.34445971,26.939898,27.621494)"><path
     id="path932"
     d="M 52.723,55.956 H 5.189 c -0.134,0 -0.248,-0.098 -0.268,-0.23 L 0.003,23.268 c -0.025,-0.164 0.102,-0.312 0.268,-0.312 h 57.37 c 0.166,0 0.293,0.148 0.268,0.312 l -4.918,32.458 c -0.02,0.132 -0.134,0.23 -0.268,0.23 z"
     style="fill:#f7b563"
     inkscape:connector-curvature="0" /><g
     id="g936">
	<path
   id="path934"
   d="M 54,22.956 V 7.724 C 54,7.3 53.656,6.956 53.232,6.956 H 22.435 c -0.27,0 -0.52,-0.141 -0.658,-0.373 L 19.224,2.328 C 19.085,2.097 18.835,1.955 18.566,1.955 H 4.768 C 4.344,1.956 4,2.3 4,2.724 v 20.232 z"
   style="fill:#b5885b"
   inkscape:connector-curvature="0" />
</g><rect
     id="rect938"
     height="4"
     width="44"
     style="fill:#ffffff"
     y="18.955999"
     x="7" /><rect
     id="rect940"
     height="3"
     width="42"
     style="fill:#e7eced"
     y="15.956"
     x="8" /><rect
     id="rect942"
     height="3"
     width="40"
     style="fill:#c7cac7"
     y="12.956"
     x="9" /><g
     id="g944">
</g><g
     id="g946">
</g><g
     id="g948">
</g><g
     id="g950">
</g><g
     id="g952">
</g><g
     id="g954">
</g><g
     id="g956">
</g><g
     id="g958">
</g><g
     id="g960">
</g><g
     id="g962">
</g><g
     id="g964">
</g><g
     id="g966">
</g><g
     id="g968">
</g><g
     id="g970">
</g><g
     id="g972">
</g></g></svg>